<svg id="Layer_1" data-name="Layer 1" xmlns="http://www.w3.org/2000/svg" viewBox="0 0 618.4 96.28"><defs><style>.cls-1{fill:#fff;}</style></defs><polygon class="cls-1" points="56.67 22.55 39.61 39.61 39.61 22.55 56.67 22.55"/><polygon class="cls-1" points="39.61 39.61 22.55 56.67 22.55 39.61 39.61 39.61"/><polygon class="cls-1" points="56.67 56.67 56.67 73.73 39.61 73.73 56.67 56.67"/><polygon class="cls-1" points="73.74 39.61 73.74 56.67 56.67 56.67 73.74 39.61"/><rect class="cls-1" x="22.55" width="51.19" height="22.55"/><rect class="cls-1" x="22.55" y="73.73" width="51.19" height="22.55"/><rect class="cls-1" x="73.74" y="22.55" width="22.55" height="51.19"/><rect class="cls-1" y="22.55" width="22.55" height="51.19"/><path class="cls-1" d="M146.54,63.78l25.57-31.85H147.66v-9h35.52V32.5l-25.3,31.84h25.58v9H146.54Z"/><path class="cls-1" d="M206.07,22.91h10.85l19,50.45h-10.5l-4.16-12H201.78l-4.16,12h-10.5Zm12.05,29.67L213.61,40l-1.83-6.12h-.56L209.39,40l-4.51,12.62Z"/><path class="cls-1" d="M284.49,65.26a25,25,0,0,1-8.8,6.87,28.16,28.16,0,0,1-21.81.32A25.63,25.63,0,0,1,240,58.53a27.48,27.48,0,0,1,0-20.78,25.63,25.63,0,0,1,13.92-13.92,26.62,26.62,0,0,1,10.46-2A25.42,25.42,0,0,1,275,23.9,24.93,24.93,0,0,1,283.23,30l-6.7,6.48a17.9,17.9,0,0,0-5.18-4.15,14.54,14.54,0,0,0-6.94-1.55A17.78,17.78,0,0,0,257.79,32a15.91,15.91,0,0,0-5.39,3.49A16.31,16.31,0,0,0,248.77,41a18.4,18.4,0,0,0-1.34,7.15,18.44,18.44,0,0,0,1.34,7.15,16.31,16.31,0,0,0,3.63,5.46,16.06,16.06,0,0,0,5.39,3.49,17.78,17.78,0,0,0,6.62,1.23,15.79,15.79,0,0,0,7.51-1.73,18.36,18.36,0,0,0,5.81-4.89Z"/><path class="cls-1" d="M315.29,74.49a26.63,26.63,0,0,1-10.47-2,25.55,25.55,0,0,1-13.88-14,27.63,27.63,0,0,1,0-20.64,25.47,25.47,0,0,1,13.88-14,27.86,27.86,0,0,1,20.93,0,25.47,25.47,0,0,1,13.88,14,27.5,27.5,0,0,1,0,20.64,25.87,25.87,0,0,1-5.53,8.38,25.57,25.57,0,0,1-8.35,5.61A26.62,26.62,0,0,1,315.29,74.49Zm0-9a17,17,0,0,0,6.58-1.27,16.53,16.53,0,0,0,5.36-3.52,15.92,15.92,0,0,0,3.59-5.46,19.79,19.79,0,0,0,0-14.16,15.92,15.92,0,0,0-3.59-5.46,16.56,16.56,0,0,0-5.36-3.53,17.84,17.84,0,0,0-13.17,0,16.66,16.66,0,0,0-5.36,3.53,16.07,16.07,0,0,0-3.59,5.46,19.93,19.93,0,0,0,0,14.16,16.07,16.07,0,0,0,3.59,5.46,16.64,16.64,0,0,0,5.36,3.52A17,17,0,0,0,315.29,65.47Z"/><path class="cls-1" d="M392.72,65.26a25,25,0,0,1-8.81,6.87,28.14,28.14,0,0,1-21.8.32,25.63,25.63,0,0,1-13.92-13.92,27.48,27.48,0,0,1,0-20.78,25.63,25.63,0,0,1,13.92-13.92,26.55,26.55,0,0,1,10.46-2,25.34,25.34,0,0,1,10.67,2.11A24.73,24.73,0,0,1,391.45,30l-6.69,6.48a18,18,0,0,0-5.18-4.15,14.54,14.54,0,0,0-6.94-1.55A17.75,17.75,0,0,0,366,32a15.81,15.81,0,0,0-5.39,3.49A16.31,16.31,0,0,0,357,41a18.4,18.4,0,0,0-1.34,7.15A18.44,18.44,0,0,0,357,55.29a16.31,16.31,0,0,0,3.63,5.46A16,16,0,0,0,366,64.24a17.75,17.75,0,0,0,6.62,1.23,15.72,15.72,0,0,0,7.5-1.73A18.29,18.29,0,0,0,386,58.85Z"/><path class="cls-1" d="M400.33,22.91h18.39a19,19,0,0,1,6.91,1.2,16,16,0,0,1,5.31,3.31,14.44,14.44,0,0,1,3.42,5,16.66,16.66,0,0,1,1.2,6.38,13.09,13.09,0,0,1-.85,4.75,14.11,14.11,0,0,1-2.32,4,17.39,17.39,0,0,1-3.45,3.17,17.69,17.69,0,0,1-4.16,2.15l-.07.49L438.24,72.8v.56H427.32l-13-19h-4.44v19h-9.51Zm18.32,22.76a7.44,7.44,0,0,0,5.32-2,6.62,6.62,0,0,0,2.08-5,7.8,7.8,0,0,0-.46-2.61,6.49,6.49,0,0,0-1.37-2.25,6.9,6.9,0,0,0-2.29-1.59,7.82,7.82,0,0,0-3.14-.6h-9v14Z"/><path class="cls-1" d="M455.36,49.9l-17-27h11.34l10.08,16.7h.56l9.73-16.7h11.48l-16.7,27V73.36h-9.51Z"/><path class="cls-1" d="M487.49,73.36V22.91h17.75A19.08,19.08,0,0,1,512,24.08a16.49,16.49,0,0,1,5.46,3.27,15.52,15.52,0,0,1,3.67,5,15.6,15.6,0,0,1-3.67,18A16.68,16.68,0,0,1,512,53.67a19.3,19.3,0,0,1-6.73,1.16H497V73.36Zm17.9-27.55A7.19,7.19,0,0,0,511,43.7a7,7,0,0,0,1.9-4.86,7.79,7.79,0,0,0-.45-2.61A6.18,6.18,0,0,0,511.06,34a6.94,6.94,0,0,0-2.36-1.51,8.82,8.82,0,0,0-3.31-.57H497V45.81Z"/><path class="cls-1" d="M539.91,73.36V31.93H525.82v-9h37.69v9H549.42V73.36Z"/><path class="cls-1" d="M592.05,74.49a26.55,26.55,0,0,1-10.46-2,25.55,25.55,0,0,1-13.88-14,27.5,27.5,0,0,1,0-20.64,25.47,25.47,0,0,1,13.88-14,27.84,27.84,0,0,1,20.92,0,25.47,25.47,0,0,1,13.88,14,27.5,27.5,0,0,1,0,20.64,25.87,25.87,0,0,1-5.53,8.38,25.57,25.57,0,0,1-8.35,5.61A26.55,26.55,0,0,1,592.05,74.49Zm0-9a17,17,0,0,0,6.59-1.27A16.49,16.49,0,0,0,604,60.68a16,16,0,0,0,3.6-5.46,19.93,19.93,0,0,0,0-14.16A16,16,0,0,0,604,35.6a16.51,16.51,0,0,0-5.35-3.53,17.86,17.86,0,0,0-13.18,0,16.51,16.51,0,0,0-5.35,3.53,16,16,0,0,0-3.6,5.46,19.93,19.93,0,0,0,0,14.16,16,16,0,0,0,3.6,5.46,16.49,16.49,0,0,0,5.35,3.52A17,17,0,0,0,592.05,65.47Z"/></svg>