<svg width="92" height="136" viewBox="0 0 92 136" fill="none" xmlns="http://www.w3.org/2000/svg">
<circle cx="4" cy="68" r="4" fill="#EBE5FC"/>
<circle cx="4" cy="100" r="4" fill="#EBE5FC"/>
<circle cx="4" cy="132" r="4" fill="#EBE5FC"/>
<circle cx="4" cy="36" r="4" fill="#EBE5FC"/>
<circle cx="4" cy="4" r="4" fill="#EBE5FC"/>
<circle cx="60" cy="68" r="4" fill="#EBE5FC"/>
<circle cx="60" cy="100" r="4" fill="#EBE5FC"/>
<circle cx="60" cy="132" r="4" fill="#EBE5FC"/>
<circle cx="60" cy="36" r="4" fill="#EBE5FC"/>
<circle cx="60" cy="4" r="4" fill="#EBE5FC"/>
<circle cx="32" cy="68" r="4" fill="#EBE5FC"/>
<circle cx="32" cy="100" r="4" fill="#EBE5FC"/>
<circle cx="32" cy="132" r="4" fill="#EBE5FC"/>
<circle cx="32" cy="36" r="4" fill="#EBE5FC"/>
<circle cx="32" cy="4" r="4" fill="#EBE5FC"/>
<circle cx="88" cy="68" r="4" fill="#EBE5FC"/>
<circle cx="88" cy="100" r="4" fill="#EBE5FC"/>
<circle cx="88" cy="132" r="4" fill="#EBE5FC"/>
<circle cx="88" cy="36" r="4" fill="#EBE5FC"/>
<circle cx="88" cy="4" r="4" fill="#EBE5FC"/>
</svg>
