<svg width="94" height="136" viewBox="0 0 94 136" fill="none" xmlns="http://www.w3.org/2000/svg">
<circle cx="6" cy="68" r="6" fill="#6935F0"/>
<circle cx="6" cy="100" r="4" fill="#EBE5FC"/>
<circle cx="6" cy="132" r="4" fill="#EBE5FC"/>
<circle cx="6" cy="36" r="4" fill="#EBE5FC"/>
<circle cx="6" cy="4" r="4" fill="#EBE5FC"/>
<circle cx="62" cy="68" r="4" fill="#EBE5FC"/>
<circle cx="62" cy="100" r="4" fill="#EBE5FC"/>
<circle cx="62" cy="132" r="4" fill="#EBE5FC"/>
<circle cx="62" cy="36" r="4" fill="#EBE5FC"/>
<circle cx="62" cy="4" r="4" fill="#EBE5FC"/>
<circle cx="34" cy="68" r="4" fill="#EBE5FC"/>
<circle cx="34" cy="100" r="4" fill="#EBE5FC"/>
<circle cx="34" cy="132" r="4" fill="#EBE5FC"/>
<circle cx="34" cy="36" r="4" fill="#EBE5FC"/>
<circle cx="34" cy="4" r="4" fill="#EBE5FC"/>
<circle cx="90" cy="68" r="4" fill="#EBE5FC"/>
<circle cx="90" cy="100" r="4" fill="#EBE5FC"/>
<circle cx="90" cy="132" r="4" fill="#EBE5FC"/>
<circle cx="90" cy="36" r="4" fill="#EBE5FC"/>
<circle cx="90" cy="4" r="4" fill="#EBE5FC"/>
</svg>
